<svg width="67" height="67" viewBox="0 0 67 67" fill="none" xmlns="http://www.w3.org/2000/svg">
<circle cx="33.5" cy="33.5" r="33.5" fill="#DEDEDE"/>
<path d="M33.4997 19.834C35.312 19.834 37.0501 20.5539 38.3316 21.8354C39.6131 23.1169 40.333 24.855 40.333 26.6673C40.333 28.4796 39.6131 30.2177 38.3316 31.4992C37.0501 32.7807 35.312 33.5006 33.4997 33.5006C31.6874 33.5006 29.9493 32.7807 28.6678 31.4992C27.3863 30.2177 26.6663 28.4796 26.6663 26.6673C26.6663 24.855 27.3863 23.1169 28.6678 21.8354C29.9493 20.5539 31.6874 19.834 33.4997 19.834ZM33.4997 36.9173C41.0505 36.9173 47.1663 39.9752 47.1663 43.7506V47.1673H19.833V43.7506C19.833 39.9752 25.9488 36.9173 33.4997 36.9173Z" fill="#C6C6C6"/>
</svg>
